<svg width="175" height="39" viewBox="0 0 175 39" fill="none" xmlns="http://www.w3.org/2000/svg">
<path d="M22.1109 29.639C22.1109 25.9294 19.5611 23.6204 16.2883 23.0526V22.9769C19.0664 22.0684 20.9312 19.9865 20.9312 16.8825C20.9312 11.2045 15.6794 9.65257 11.3028 9.65257H0V37.8531H11.3028C16.7069 37.8531 22.1109 35.7712 22.1109 29.639ZM14.3474 17.8288C14.3474 19.8351 12.8632 20.8949 10.3134 20.8949H6.62186V15.0656H9.97085C12.8632 15.0656 14.3474 15.8983 14.3474 17.8288ZM15.2607 28.9955C15.2607 31.7588 12.6348 32.3266 10.4656 32.3266H6.62186V25.8916H10.4275C13.3579 25.8916 15.2607 26.6486 15.2607 28.9955ZM56.1717 23.6204C56.1717 14.5735 49.6259 8.89551 40.7206 8.89551C31.8915 8.89551 25.3077 14.5735 25.3077 23.6204C25.3077 32.5537 31.8534 38.5723 40.7206 38.5723C49.5879 38.6102 56.1717 32.5537 56.1717 23.6204ZM48.8267 23.6204C48.8267 28.7305 45.4777 32.3644 40.6826 32.3644C35.8875 32.3644 32.6146 28.6927 32.6146 23.6204C32.6146 18.6995 35.8875 15.0277 40.6826 15.0277C45.4777 15.0277 48.8267 18.6995 48.8267 23.6204ZM86.4648 37.8531V9.65257H79.8049L79.9571 28.0492H79.8429L68.464 9.65257H60.6624V37.8531H67.3223L67.17 19.4187H67.2842L78.7012 37.8531H86.4648ZM110.973 15.4819V9.65257H92.3255V37.8531H99.0996V26.8757H110.06V21.2735H99.0996V15.4819H110.973ZM122.238 37.8531V17.9803H115.35V37.8153H122.238V37.8531ZM151.275 37.8531L143.854 25.778C147.508 24.6803 149.753 21.9548 149.753 18.1695C149.753 11.7345 144.349 9.65257 138.907 9.65257H128.099V37.8531H134.835V26.6486H137.156L143.283 37.8531H151.275V37.8531ZM142.979 18.2831C142.979 21.1599 140.201 21.6899 138.032 21.6899H134.797V15.1413H138.45C140.467 15.1413 142.979 15.6712 142.979 18.2831ZM174.414 37.8531V32.0238H161.246V26.1565H173.006V20.7057H161.246V15.4062H173.691V9.65257H154.624V37.8531H174.414Z" fill="#2E2425"/>
<path fill-rule="evenodd" clip-rule="evenodd" d="M119.916 4.46667C120.601 2.34689 119.726 0.832768 117.519 0C119.079 1.93051 118.927 4.05028 117.024 6.28362C114.931 8.78192 114.055 11.0153 114.702 12.9079C115.502 15.4062 117.442 16.0876 118.851 16.0876C120.259 16.0876 122.504 15.2169 123.113 12.9079C123.722 10.6746 123.684 8.36554 122.77 5.98079C122.961 7.49492 122.694 8.63051 122.047 9.38757C121.134 10.4853 120.221 10.561 119.421 9.38757C118.813 8.44124 119.155 6.77571 119.916 4.46667Z" fill="#DB6020"/>
</svg>
