<svg width="188" height="67" viewBox="0 0 188 67" fill="none" xmlns="http://www.w3.org/2000/svg">
<path d="M28.086 31.4181C28.086 27.7085 25.5362 25.3994 22.2634 24.8316V24.7559C25.0415 23.8474 26.9063 21.7655 26.9063 18.6616C26.9063 12.9836 21.6545 11.4316 17.2779 11.4316H5.9751V39.6322H17.2779C22.682 39.6322 28.086 37.5503 28.086 31.4181ZM20.3225 19.6079C20.3225 21.6141 18.8383 22.674 16.2885 22.674H12.597V16.8446H15.9459C18.8383 16.8446 20.3225 17.6774 20.3225 19.6079ZM21.2358 30.7746C21.2358 33.5378 18.6099 34.1056 16.4407 34.1056H12.597V27.6706H16.4026C19.333 27.6706 21.2358 28.4277 21.2358 30.7746ZM62.1468 25.3994C62.1468 16.3525 55.601 10.6746 46.6957 10.6746C37.8666 10.6746 31.2828 16.3525 31.2828 25.3994C31.2828 34.3328 37.8285 40.3514 46.6957 40.3514C55.563 40.3892 62.1468 34.3328 62.1468 25.3994ZM54.8018 25.3994C54.8018 30.5096 51.4528 34.1435 46.6577 34.1435C41.8625 34.1435 38.5897 30.4717 38.5897 25.3994C38.5897 20.4785 41.8625 16.8068 46.6577 16.8068C51.4528 16.8068 54.8018 20.4785 54.8018 25.3994ZM92.4399 39.6322V11.4316H85.78L85.9322 29.8282H85.818L74.4391 11.4316H66.6375V39.6322H73.2974L73.1451 21.1977H73.2593L84.6763 39.6322H92.4399ZM116.948 17.261V11.4316H98.3006V39.6322H105.075V28.6548H116.035V23.0525H105.075V17.261H116.948ZM128.213 39.6322V19.7593H121.325V39.5943H128.213V39.6322ZM157.25 39.6322L149.829 27.557C153.483 26.4593 155.728 23.7339 155.728 19.9486C155.728 13.5135 150.324 11.4316 144.882 11.4316H134.074V39.6322H140.81V28.4277H143.131L149.258 39.6322H157.25ZM148.954 20.0621C148.954 22.939 146.176 23.4689 144.007 23.4689H140.772V16.9203H144.425C146.442 16.9203 148.954 17.4503 148.954 20.0621ZM180.389 39.6322V33.8028H167.221V27.9356H178.981V22.4847H167.221V17.1853H179.666V11.4316H160.599V39.6322H180.389Z" fill="#2E2425"/>
<path fill-rule="evenodd" clip-rule="evenodd" d="M125.891 6.24572C126.576 4.12595 125.701 2.61182 123.494 1.77905C125.054 3.70956 124.902 5.82933 122.999 8.06267C120.906 10.561 120.031 12.7943 120.677 14.687C121.477 17.1853 123.418 17.8666 124.826 17.8666C126.234 17.8666 128.479 16.996 129.088 14.687C129.697 12.4536 129.659 10.1446 128.746 7.75984C128.936 9.27397 128.669 10.4096 128.022 11.1666C127.109 12.2644 126.196 12.3401 125.397 11.1666C124.788 10.2203 125.13 8.55476 125.891 6.24572Z" fill="#DB6020"/>
</svg>
